PathFileType	4	(X/Y/Z)	/Users/itak/Documents/Research/Walk-IL/dataset/trc/00557_00009.trc
DataRate	CameraRate	NumFrames	NumMarkers	Units	OrigDataRate	OrigDataStartFrame	OrigNumFrames
100.000000	100.000000	4	53	mm	100.000000	288	385
Frame#	Time	RPSI			LPSI			L3			STRN			T10			C7			CLAV			RBAK			LBAK			LSHO			LUPA			LAEL			LAOL			LWTS			LWPS			LFRA			LIFD			LHPS			LHTS			RSHO			RUPA			RAEL			RAOL			RWTS			RWPS			RFRA			RIFD			RHTS			RHPS			RBHD			LFHD			RFHD			LBHD			LHIP			RHIP			RASI			LASI			LKNE			LTHI			LANK			LTIP			LTOE			LMT1			LMT5			LHEE			RKNE			RTHI			RANK			RTIP			RTOE			RMT1			RMT5			RHEE			
		X1	Y1	Z1	X2	Y2	Z2	X3	Y3	Z3	X4	Y4	Z4	X5	Y5	Z5	X6	Y6	Z6	X7	Y7	Z7	X8	Y8	Z8	X9	Y9	Z9	X10	Y10	Z10	X11	Y11	Z11	X12	Y12	Z12	X13	Y13	Z13	X14	Y14	Z14	X15	Y15	Z15	X16	Y16	Z16	X17	Y17	Z17	X18	Y18	Z18	X19	Y19	Z19	X20	Y20	Z20	X21	Y21	Z21	X22	Y22	Z22	X23	Y23	Z23	X24	Y24	Z24	X25	Y25	Z25	X26	Y26	Z26	X27	Y27	Z27	X28	Y28	Z28	X29	Y29	Z29	X30	Y30	Z30	X31	Y31	Z31	X32	Y32	Z32	X33	Y33	Z33	X34	Y34	Z34	X35	Y35	Z35	X36	Y36	Z36	X37	Y37	Z37	X38	Y38	Z38	X39	Y39	Z39	X40	Y40	Z40	X41	Y41	Z41	X42	Y42	Z42	X43	Y43	Z43	X44	Y44	Z44	X45	Y45	Z45	X46	Y46	Z46	X47	Y47	Z47	X48	Y48	Z48	X49	Y49	Z49	X50	Y50	Z50	X51	Y51	Z51	X52	Y52	Z52	X53	Y53	Z53	

289	2.88	773.260498046875	927.0731201171875	317.4571228027344	826.9177856445312	928.3287353515625	194.7314910888672	802.47998046875	1035.39453125	255.2086334228516	1018.918212890625	1237.290283203125	319.6388549804688	787.0169067382812	1159.882934570312	254.0124206542969	814.4874877929688	1438.816284179688	285.4266052246094	992.2549438476562	1346.133666992188	313.5932922363281	730.1893310546875	1307.208862304688	351.0637817382812	803.0189208984375	1384.581176757812	189.7891693115234	913.0999145507812	1419.4541015625	134.9541320800781	912.5590209960938	1315.1953125	33.49427032470703	917.9440307617188	1142.210327148438	-51.12689208984375	835.9493408203125	1087.64501953125	-24.71964836120605	1129.515625	1057.120849609375	44.71951293945312	1137.146728515625	1006.415893554688	-25.50089836120605	988.3165893554688	1100.294799804688	-50.39700317382812	1273.252685546875	964.3563842773438	56.87580108642578	1188.93505859375	983.9107666015625	-11.14522743225098	1205.450805664062	1030.858764648438	35.53242492675781	837.1954956054688	1404.3427734375	445.4039306640625	806.3412475585938	1344.007690429688	508.9880065917969	811.4527587890625	1075.50927734375	601.8065185546875	767.638916015625	1038.013793945312	574.6240234375	1033.384643554688	957.1603393554688	592.9597778320312	998.1058349609375	913.281005859375	652.0001831054688	843.109375	1030.246704101562	615.5218505859375	1150.4716796875	842.718505859375	626.8955688476562	1107.5869140625	915.315185546875	630.6017456054688	1059.117553710938	874.4143676757812	669.4581298828125	908.3086547851562	1622.985107421875	384.686279296875	1093.61328125	1610.745727539062	290.79248046875	1041.443725585938	1605.719360351562	425.8579406738281	973.7537231445312	1624.976806640625	232.7242889404297	1008.957824707031	876.5620727539062	130.4589996337891	852.3422241210938	873.7237548828125	479.7998657226562	946.6455688476562	919.0652465820312	458.7127075195312	1053.722045898438	913.4345092773438	205.8137664794922	1233.331176757812	509.2810974121094	272.3005065917969	1154.324462890625	649.4531860351562	204.3620910644531	1173.751098632812	34.79176712036133	282.2619323730469	1199.59130859375	251.3634185791016	274.4686584472656	1350.317993164062	36.25661468505859	424.7837524414062	1265.237670898438	45.77447509765625	424.2137756347656	1290.734375	35.35546112060547	318.3787536621094	1090.82568359375	33.02640151977539	304.4800109863281	993.5040893554688	448.8164672851562	499.3084106445312	923.1329345703125	733.9185180664062	503.3504333496094	630.768798828125	179.5050506591797	326.3522644042969	918.850341796875	332.775634765625	452.4664306640625	811.510986328125	51.9349365234375	366.9855041503906	781.97802734375	88.67777252197266	305.6648559570312	717.9613037109375	98.46440124511719	385.9521179199219	610.3051147460938	201.4868011474609	255.1259307861328	
290	2.89	782.5089721679688	922.2853393554688	320.2359008789062	836.5245971679688	924.7969970703125	197.4696502685547	811.2041015625	1031.863891601562	258.4400024414062	1028.9140625	1233.281860351562	323.7579345703125	796.396728515625	1156.688598632812	256.408203125	825.2582397460938	1435.8681640625	287.720947265625	1002.569091796875	1342.245239257812	317.5766296386719	740.171630859375	1304.409790039062	353.1564636230469	814.3674926757812	1381.690795898438	191.6505584716797	925.537841796875	1416.041625976562	137.8513793945312	928.6942749023438	1310.28076171875	37.12302017211914	941.6801147460938	1137.448120117188	-46.43592834472656	860.0289916992188	1080.356811523438	-22.14530944824219	1152.125854492188	1054.625	54.06007385253906	1163.258056640625	1006.734985351562	-17.7784309387207	1012.983276367188	1097.118774414062	-44.19690704345703	1297.061279296875	964.26416015625	67.92535400390625	1215.071655273438	984.739990234375	-2.373167276382446	1228.705078125	1030.170654296875	46.72634506225586	847.0909423828125	1401.268798828125	448.280029296875	816.1270141601562	1340.661499023438	511.5970458984375	821.1099853515625	1071.923583984375	603.7056274414062	777.495361328125	1034.45263671875	576.0989379882812	1042.519653320312	953.050048828125	596.0741577148438	1006.520202636719	908.8223876953125	654.4378662109375	852.5283813476562	1026.4775390625	617.603271484375	1159.173095703125	838.526123046875	631.5296630859375	1116.209716796875	911.143798828125	634.5908203125	1067.241943359375	870.2413940429688	672.8685302734375	919.0427856445312	1620.104736328125	387.1289367675781	1104.580078125	1607.539672851562	293.5932006835938	1052.159423828125	1602.958740234375	428.6289978027344	984.7566528320312	1621.562744140625	235.3539581298828	1019.049682617188	874.089111328125	132.9707336425781	862.376708984375	868.9560546875	482.4485473632812	956.4007568359375	914.9531860351562	461.3135986328125	1063.963012695312	910.8579711914062	208.1082458496094	1245.5654296875	508.1880187988281	276.6505432128906	1166.37255859375	648.378662109375	208.1485748291016	1173.45263671875	35.4644660949707	282.8331298828125	1205.426513671875	250.8209686279297	277.1243591308594	1350.621337890625	35.42439651489258	425.3782958984375	1265.309936523438	45.34098434448242	424.6999206542969	1290.642822265625	35.702392578125	318.5227661132812	1090.54736328125	33.686767578125	305.0542907714844	1011.259033203125	448.1986389160156	507.0457153320312	935.2893676757812	730.9127197265625	507.3220825195312	647.71923828125	182.8787841796875	333.4788818359375	936.5806884765625	333.1571350097656	460.2265014648438	827.287353515625	55.13482666015625	377.7735900878906	798.3786010742188	90.42702484130859	315.369873046875	734.133056640625	102.7399139404297	395.3082275390625	627.6167602539062	203.4532165527344	261.7284851074219	
291	2.9	791.3555908203125	918.735595703125	322.5951538085938	845.7479248046875	922.3041381835938	199.8901062011719	819.2749633789062	1029.32666015625	261.2527160644531	1038.3505859375	1230.179321289062	327.8447875976562	805.2276611328125	1154.474731445312	258.7817993164062	835.7042236328125	1433.73046875	290.1134643554688	1012.424560546875	1339.214599609375	321.5634460449219	749.6754760742188	1302.594848632812	355.4027709960938	825.3594970703125	1379.656005859375	193.676513671875	937.5987548828125	1413.5498046875	140.9542083740234	944.375732421875	1306.634033203125	40.9859504699707	964.8865966796875	1133.844116210938	-41.2313117980957	883.6406860351562	1074.4853515625	-18.97759056091309	1174.006713867188	1052.930297851562	63.95389938354492	1188.466918945312	1007.73486328125	-9.220712661743164	1036.98193359375	1094.951171875	-37.38791656494141	1319.765747070312	964.6130981445312	79.84259796142578	1240.274780273438	986.19873046875	7.175559043884277	1251.099243164062	1030.087036132812	58.53668212890625	856.6612548828125	1399.000732421875	451.113037109375	825.4943237304688	1338.21826171875	514.1806030273438	830.0217895507812	1069.111328125	605.3953247070312	786.51611328125	1031.802978515625	577.37890625	1050.676025390625	949.1907958984375	598.800537109375	1013.924621582031	904.644287109375	656.4893188476562	861.1116333007812	1023.460327148438	619.4231567382812	1166.515991210938	834.0911254882812	635.3970947265625	1123.766235351562	906.8857421875	638.0439453125	1074.19189453125	866.0759887695312	675.689697265625	929.6320190429688	1617.865112304688	389.6460876464844	1115.33642578125	1604.729858398438	296.3823547363281	1062.731689453125	1600.675415039062	431.4190063476562	995.5389404296875	1618.694702148438	238.0142974853516	1028.623291015625	872.4631958007812	135.41796875	871.5155029296875	865.308837890625	484.8144836425781	965.3666381835938	911.8751220703125	463.7336730957031	1073.525268554688	909.0548095703125	210.4630889892578	1256.496704101562	507.2898559570312	280.3006286621094	1177.386352539062	647.7384033203125	211.4390716552734	1173.300537109375	36.02605056762695	283.2799987792969	1210.608154296875	250.5206756591797	279.153564453125	1350.90185546875	35.02597808837891	425.6231384277344	1265.478271484375	45.29032897949219	424.9109802246094	1290.625	35.93611907958984	318.5818481445312	1090.4462890625	34.54523468017578	305.4570922851562	1028.5771484375	448.7870788574219	514.5986328125	946.520751953125	729.006591796875	511.1089172363281	665.8619995117188	184.6777801513672	340.8905639648438	954.4743041992188	334.178955078125	468.0841979980469	844.9299926757812	58.04303359985352	389.0704650878906	816.5036010742188	91.58702087402344	325.5582275390625	751.873291015625	106.0371551513672	405.0642395019531	646.0509033203125	203.6819152832031	268.6110534667969	
292	2.91	799.8778686523438	916.3583984375	324.4901123046875	854.6619262695312	920.8173217773438	201.9373779296875	826.9307861328125	1027.720947265625	263.5624694824219	1047.269409179688	1228.01318359375	331.9016418457031	813.7078857421875	1153.180786132812	261.0635070800781	845.7913818359375	1432.389282226562	292.5446472167969	1021.823425292969	1337.078491210938	325.5457763671875	758.7284545898438	1301.677001953125	357.6883850097656	836.005859375	1378.427001953125	195.8071594238281	949.273193359375	1411.975219726562	144.2217254638672	959.6170654296875	1304.250732421875	45.02358245849609	987.3191528320312	1131.417602539062	-35.6440544128418	906.5436401367188	1070.10986328125	-15.29013156890869	1194.985961914062	1052.201049804688	74.21054840087891	1212.513671875	1009.350830078125	0.08813700824975967	1060.073486328125	1093.787353515625	-30.12812614440918	1341.225341796875	965.6177978515625	92.5037841796875	1264.291137695312	988.2560424804688	17.43472099304199	1272.472534179688	1030.767944335938	70.71881866455078	865.8152465820312	1397.549072265625	453.8741149902344	834.3605346679688	1336.670166015625	516.7030639648438	838.1043701171875	1067.088134765625	606.92822265625	794.6563110351562	1030.061889648438	578.5000610351562	1057.850463867188	945.6859741210938	601.1431274414062	1020.369506835938	900.88232421875	658.205078125	868.8126220703125	1021.212890625	621.0126342773438	1172.53759765625	829.5430297851562	638.38232421875	1130.289184570312	902.6561279296875	640.9080810546875	1080.031372070312	862.0252075195312	677.883544921875	940.0279541015625	1616.319213867188	392.2383117675781	1125.832275390625	1602.413818359375	299.1814270019531	1073.097900390625	1598.939331054688	434.2353820800781	1006.065368652344	1616.456909179688	240.7079010009766	1037.824951171875	871.6392822265625	137.8040924072266	879.807373046875	862.7607421875	486.9049682617188	973.5736694335938	909.830322265625	466.02392578125	1082.489624023438	907.9803466796875	212.9648895263672	1266.003173828125	506.4564819335938	283.3631591796875	1187.299194335938	647.3676147460938	214.3069305419922	1173.240600585938	36.47833251953125	283.6205444335938	1215.074829101562	250.3197479248047	280.6924743652344	1351.14404296875	34.8992919921875	425.6471862792969	1265.683959960938	45.44209289550781	424.9609680175781	1290.650024414062	36.07592391967773	318.5934753417969	1090.451904296875	35.43492126464844	305.7468872070312	1045.292236328125	450.5113220214844	521.9146118164062	956.8294067382812	728.15234375	514.7173461914062	685.0164184570312	184.8182983398438	348.5326538085938	972.3626098632812	335.7799682617188	475.9732666015625	864.2743530273438	60.50735092163086	400.6351623535156	836.1765747070312	92.10712432861328	336.041259765625	771.02001953125	108.2126922607422	415.0464477539062	665.4385375976562	202.1558074951172	275.7518615722656	
